<svg width="96" height="96" xmlns="http://www.w3.org/2000/svg" version="1.0" preserveAspectRatio="xMidYMid meet" color-interpolation-filters="sRGB">
 <defs>
  <linearGradient id="svg_7">
   <stop offset="0" stop-color="#c1272d"/>
   <stop offset="1" stop-color="#f7931e"/>
  </linearGradient>
 </defs>
 <g>
  <path id="svg_1" d="m49.73,37.44l16.27,-31.19a2.93,2.93 0 0 0 -1.35,-4.06a6.43,6.43 0 0 0 -0.68,-0.31a40.89,40.89 0 0 0 -8.31,-0.88l-23.47,0a3.1,3.1 0 0 0 -3.11,3a2.39,2.39 0 0 0 0.32,1.24l14.88,32a3.06,3.06 0 0 0 4.06,1.47a2.33,2.33 0 0 0 1.39,-1.27z" fill="#f9ce6e"/>
  <path id="svg_2" d="m40.5,53.39l-23.11,-49.8a3.08,3.08 0 0 0 -2.83,-1.71l0,0a13.57,13.57 0 0 0 -13.56,13.52l0,0l0,66a13.58,13.58 0 0 0 13.68,13.6l3.74,0a3.19,3.19 0 0 0 2.71,-1.59l19.37,-37.32a3.19,3.19 0 0 0 0,-2.7z" fill="#FC471E"/>
  <path id="svg_3" d="m75,11l-41.34,79.46a2.92,2.92 0 0 0 1.34,4.06a2.73,2.73 0 0 0 1.43,0.32l18.23,0a40,40 0 0 0 40.14,-39.84l0,-14.34a38.68,38.68 0 0 0 -15.24,-30.79a3.18,3.18 0 0 0 -4.33,0.64a1.67,1.67 0 0 1 -0.23,0.49z" fill="url(#svg_7)"/>
  <path stroke="null" transform="rotate(-61.978885650634766 65.65060424804688,60.18410491943359) " id="svg_4" d="m30.403498,59.005812l0,-9.819121l3.715769,0l0,9.819121q0.079059,1.859087 0.158118,2.461326l0,0q0.184471,1.204479 1.159531,1.632156q0.97506,0.436405 3.425887,0.436405l0,0l3.584004,0l0,3.115934l-3.979299,0q-2.819768,0 -4.084711,-0.314212l0,0q-2.898827,-0.837898 -3.689416,-3.665805l0,0q-0.289883,-1.099742 -0.289883,-3.665805l0,0zm14.151547,7.645822l0,-12.751766l3.531298,0l0,12.751766l-3.531298,0zm3.531298,-14.060982l-3.531298,0l0,-3.403962l3.531298,0l0,3.403962zm5.771301,1.309216l3.267769,8.771748l3.584004,-8.771748l3.742122,0l-5.534124,12.751766l-3.794828,0l-5.112477,-12.751766l3.847534,0zm12.491309,12.751766l0,-12.751766l3.531298,0l0,12.751766l-3.531298,0zm3.531298,-14.060982l-3.531298,0l0,-3.403962l3.531298,0l0,3.403962zm3.478592,14.060982l0,-12.751766l6.799067,0q1.528472,0 2.327846,0.226931q0.808158,0.218203 1.466982,0.794258l0,0q1.344002,1.230663 1.344002,3.87528l0,0l0,7.855297l-3.531298,0l0,-8.248062q0,-0.942636 -0.421648,-1.361585q-0.421648,-0.418949 -1.396708,-0.418949l0,0l-3.056945,0l0,10.028596l-3.531298,0zm20.950614,-12.751766l6.588243,0l0,12.673213q0,1.073557 -0.254745,1.911456q-0.245961,0.837898 -0.720315,1.413953l0,0q-0.606118,0.733161 -1.466982,1.003732q-0.852079,0.279299 -2.485964,0.279299l0,0l-7.036244,0l0,-2.72317l6.56189,0q1.159531,0 1.510904,-0.357852q0.360157,-0.349124 0.360157,-1.448866l0,0l-3.241416,0q-1.554825,0 -2.573807,-0.331668q-1.010197,-0.32294 -1.827139,-1.082285l0,0q-1.923767,-1.806718 -1.923767,-4.975021l0,0q0,-3.613437 2.345415,-5.263049l0,0q0.843295,-0.602239 1.774434,-0.846626q0.939923,-0.253115 2.389336,-0.253115l0,0zm3.056945,10.028596l0,-7.305426l-2.92518,0q-3.056945,0 -3.056945,3.665805l0,0q0,1.780534 0.825727,2.714442q0.834511,0.925179 2.415689,0.925179l0,0l2.740709,0z" fill="#ffffff"/>
 </g>
</svg>