<svg width="96" height="127" xmlns="http://www.w3.org/2000/svg" color-interpolation-filters="sRGB" preserveAspectRatio="xMidYMid meet" version="1.0">
 <defs>
  <linearGradient id="svg_7">
   <stop stop-color="#c1272d" offset="0"/>
   <stop stop-color="#f7931e" offset="1"/>
  </linearGradient>
 </defs>
 <g>
  <path fill="#f9ce6e" d="m49.73,38.44l16.27,-31.19a2.93,2.93 0 0 0 -1.35,-4.06a6.43,6.43 0 0 0 -0.68,-0.31a40.89,40.89 0 0 0 -8.31,-0.88l-23.47,0a3.1,3.1 0 0 0 -3.11,3a2.39,2.39 0 0 0 0.32,1.24l14.88,32a3.06,3.06 0 0 0 4.06,1.47a2.33,2.33 0 0 0 1.39,-1.27z" id="svg_1"/>
  <path fill="#FC471E" d="m40.5,54.39l-23.11,-49.8a3.08,3.08 0 0 0 -2.83,-1.71l0,0a13.57,13.57 0 0 0 -13.56,13.52l0,0l0,66a13.58,13.58 0 0 0 13.68,13.6l3.74,0a3.19,3.19 0 0 0 2.71,-1.59l19.37,-37.32a3.19,3.19 0 0 0 0,-2.7z" id="svg_2"/>
  <path fill="url(#svg_7)" d="m75,12l-41.34,79.46a2.92,2.92 0 0 0 1.34,4.06a2.73,2.73 0 0 0 1.43,0.32l18.23,0a40,40 0 0 0 40.14,-39.84l0,-14.34a38.68,38.68 0 0 0 -15.24,-30.79a3.18,3.18 0 0 0 -4.33,0.64a1.67,1.67 0 0 1 -0.23,0.49z" id="svg_3"/>
  <path fill="#555" d="m8.675,112.83l0,-11.25l4.23,0l0,11.25q0.09,2.13 0.18,2.82l0,0q0.21,1.38 1.32,1.87q1.11,0.5 3.9,0.5l0,0l4.08,0l0,3.57l-4.53,0q-3.21,0 -4.65,-0.36l0,0q-3.3,-0.96 -4.2,-4.2l0,0q-0.33,-1.26 -0.33,-4.2l0,0zm16.11,8.76l0,-14.61l4.02,0l0,14.61l-4.02,0zm4.02,-16.11l-4.02,0l0,-3.9l4.02,0l0,3.9zm6.57,1.5l3.72,10.05l4.08,-10.05l4.26,0l-6.3,14.61l-4.32,0l-5.82,-14.61l4.38,0zm14.22,14.61l0,-14.61l4.02,0l0,14.61l-4.02,0zm4.02,-16.11l-4.02,0l0,-3.9l4.02,0l0,3.9zm3.96,16.11l0,-14.61l7.74,0q1.74,0 2.65,0.26q0.92,0.25 1.67,0.91l0,0q1.53,1.41 1.53,4.44l0,0l0,9l-4.02,0l0,-9.45q0,-1.08 -0.48,-1.56q-0.48,-0.48 -1.59,-0.48l0,0l-3.48,0l0,11.49l-4.02,0zm23.85,-14.61l7.5,0l0,14.52q0,1.23 -0.29,2.19q-0.28,0.96 -0.82,1.62l0,0q-0.69,0.84 -1.67,1.15q-0.97,0.32 -2.83,0.32l0,0l-8.01,0l0,-3.12l7.47,0q1.32,0 1.72,-0.41q0.41,-0.4 0.41,-1.66l0,0l-3.69,0q-1.77,0 -2.93,-0.38q-1.15,-0.37 -2.08,-1.24l0,0q-2.19,-2.07 -2.19,-5.7l0,0q0,-4.14 2.67,-6.03l0,0q0.96,-0.69 2.02,-0.97q1.07,-0.29 2.72,-0.29l0,0zm3.48,11.49l0,-8.37l-3.33,0q-3.48,0 -3.48,4.2l0,0q0,2.04 0.94,3.11q0.95,1.06 2.75,1.06l0,0l3.12,0z" id="svg_4"/>
 </g>
</svg>