<svg width="477" height="175" xmlns="http://www.w3.org/2000/svg" version="1.0">
 <defs>
  <linearGradient id="svg_7">
   <stop offset="0" stop-color="#c1272d"/>
   <stop offset="1" stop-color="#f7931e"/>
  </linearGradient>
 </defs>
 <g>
  <g id="svg_5">
   <path stroke="null" fill="#f9ce6e" d="m109.275704,19.949849l8.312045,-15.934387a1.496882,1.496882 0 0 0 -0.689696,-2.074179a3.284966,3.284966 0 0 0 -0.347394,-0.158376a20.889939,20.889939 0 0 0 -4.245428,-0.449578l-11.99039,0a1.58373,1.58373 0 0 0 -1.588837,1.532646a1.221008,1.221008 0 0 0 0.163483,0.633497l7.601914,16.348201a1.563295,1.563295 0 0 0 2.074179,0.750994a1.190351,1.190351 0 0 0 0.710124,-0.648817z" id="svg_1"/>
   <path fill="#FC471E" d="m104.979017,27.55801l-11.9089,-25.66261a1.58717,1.58717 0 0 0 -1.45833,-0.88118l0,0a6.9928,6.9928 0 0 0 -6.98765,6.96703l0,0l0,34.01068a6.99796,6.99796 0 0 0 7.04948,7.00826l1.92728,0a1.64385,1.64385 0 0 0 1.39649,-0.81934l9.98162,-19.2315a1.64385,1.64385 0 0 0 0,-1.39134l0.00001,0z" id="svg_2"/>
   <path stroke="null" fill="url(#svg_7)" d="m120.93559,6.012212l-21.118493,40.592054a1.491676,1.491676 0 0 0 0.68453,2.074041a1.394615,1.394615 0 0 0 0.730518,0.163472l9.31278,0a20.433953,20.433953 0 0 0 20.505468,-20.352212l0,-7.325574a19.75964,19.75964 0 0 0 -7.785332,-15.729043a1.624499,1.624499 0 0 0 -2.211977,0.326945a0.853115,0.853115 0 0 1 -0.117494,0.250317z" id="svg_3"/>
   <path fill="url(#svg_7)" d="m-0.32462,24.58002l25.15598,0l0,66.9042q0.53524,12.6672 1.07047,16.77065l0,0q1.24888,8.20692 7.85009,11.12097q6.60122,2.97352 23.19346,2.97352l0,0l24.26393,0l0,21.23094l-26.9401,0q-19.09,0 -27.65373,-2.14094l0,0q-19.62524,-5.70916 -24.97757,-24.97757l0,0q-1.96253,-7.49327 -1.96253,-24.97757l0,-66.90421l0,0.00001zm95.80682,119.00028l0,-86.88627l23.90711,0l0,86.88627l-23.90711,0zm62.97917,-86.88627l22.12299,59.76776l24.26392,-59.76776l25.33439,0l-37.46635,86.88627l-25.69122,0l-34.61177,-86.88627l26.04804,0zm84.56691,86.88627l0,-86.88627l23.9071,0l0,86.88627l-23.9071,0zm23.9071,-95.80683l-23.9071,0l0,-23.19346l23.9071,0l0,23.19346zm23.55028,95.80683l0,-86.88627l46.0301,0q10.34785,0 15.75966,1.54623q5.47127,1.48676 9.93155,5.41181l0,0q9.09898,8.38533 9.09898,26.40486l0,0l0,53.52337l-23.90711,0l0,-56.19954q0,-6.4228 -2.85458,-9.27738q-2.85458,-2.85458 -9.45579,-2.85458l0,0l-20.6957,0l0,68.3315l-23.90711,0zm141.83692,-86.88627l44.60281,0l0,86.35103q0,7.31486 -1.72465,13.02402q-1.66517,5.70916 -4.87657,9.63421l0,0q-4.10346,4.99551 -9.93156,6.83909q-5.76863,1.90306 -16.83012,1.90306l0,0l-47.6358,0l0,-18.55477l44.4244,0q7.85009,0 10.22891,-2.43829q2.43828,-2.37881 2.43828,-9.87208l0,0l-21.94458,0q-10.52626,0 -17.42482,-2.25988q-6.8391,-2.2004 -12.36985,-7.37433l0,0q-13.02402,-12.31037 -13.02402,-33.89813l0,0q0,-24.62075 15.8786,-35.86066l0,0q5.70916,-4.10345 12.01302,-5.76863q6.36334,-1.72464 16.17595,-1.72464l0,0zm20.6957,68.3315l0,-49.77673l-19.80364,0q-20.6957,0 -20.6957,24.97757l0,0q0,12.13196 5.59022,18.4953q5.64968,6.30386 16.35436,6.30386l0,0l18.55476,0z" id="svg_4"/>
  </g>
 </g>
</svg>