<?xml version="1.0" standalone="no"?>
<!DOCTYPE svg PUBLIC "-//W3C//DTD SVG 20010904//EN"
 "http://www.w3.org/TR/2001/REC-SVG-20010904/DTD/svg10.dtd">
<svg version="1.0" xmlns="http://www.w3.org/2000/svg"
 width="1024.000000pt" height="1024.000000pt" viewBox="0 0 1024.000000 1024.000000"
 preserveAspectRatio="xMidYMid meet">
 <defs style="vector-effect: non-scaling-stroke;" stroke="null">
  <linearGradient style="vector-effect: non-scaling-stroke;" stroke="null" id="svg_7">
   <stop style="vector-effect: non-scaling-stroke;" stroke="null" stop-color="#c1272d" offset="0"/>
   <stop style="vector-effect: non-scaling-stroke;" stroke="null" stop-color="#f7931e" offset="1"/>
  </linearGradient>
 </defs>
 <g stroke="null">
  <path stroke="null" fill="#f9ce6e" d="m534.838985,459.845938l203.082858,-389.314956a36.572389,36.572389 0 0 0 -16.85076,-50.677099a80.259544,80.259544 0 0 0 -8.48779,-3.869434a510.390783,510.390783 0 0 0 -103.725786,-10.984199l-292.953575,0a38.694337,38.694337 0 0 0 -38.819157,37.446132a29.832085,29.832085 0 0 0 3.994254,15.477735l185.732816,399.425411a38.195055,38.195055 0 0 0 50.677099,18.348605a29.083163,29.083163 0 0 0 17.350041,-15.852196z" id="svg_1"/>
  <path stroke="null" fill="#FC471E" d="m457.351982,566.246253l-265.82457,-545.300551a35.427939,33.725416 0 0 0 -32.552295,-18.724176l0,0a156.089979,148.588925 0 0 0 -155.974953,148.041435l0,0l0,722.687478a156.205005,148.698423 0 0 0 157.355262,148.91742l43.01964,0a36.693223,34.929895 0 0 0 31.171985,-17.410198l222.804929,-408.646919a36.693223,34.929895 0 0 0 0,-29.564488z" id="svg_2"/>
  <path stroke="null" fill="url(#svg_7)" d="m793.011416,80.964992l-422.025884,891.096324a29.809279,32.746052 0 0 0 13.6796,45.530469a27.869634,30.615315 0 0 0 14.59838,3.588608l186.103819,0a408.346284,448.57605 0 0 0 409.775496,-446.781746l0,-160.814514a394.870856,433.77304 0 0 0 -155.579934,-345.291415a32.46353,35.661796 0 0 0 -44.203485,7.177217a17.048457,18.72805 0 0 1 -2.347991,5.495057z" id="svg_3"/>
  <path stroke="null" fill="#ffffff" d="m386.439931,657.087522l0,-92.104071l34.854197,0l0,92.104071q0.741589,17.438402 1.483177,23.087457l0,0q1.730342,11.298111 10.876477,15.309688q9.146135,4.093558 32.135008,4.093558l0,0l33.618279,0l0,29.227654l-37.326128,0q-26.449651,0 -38.314882,-2.947313l0,0q-27.19124,-7.859564 -34.607032,-34.385475l0,0q-2.719096,-10.315736 -2.719096,-34.385569l0,0zm132.742491,71.718357l0,-119.612451l33.123855,0l0,119.612451l-33.123855,0zm33.123855,-131.893032l-33.123855,0l0,-31.929396l33.123855,0l0,31.929396zm54.135221,12.28058l30.651924,82.279663l33.618279,-82.279663l35.101362,0l-51.910548,119.612451l-35.595692,0l-47.95544,-119.612451l36.090116,0zm117.169411,119.612451l0,-119.612451l33.123855,0l0,119.612451l-33.123855,0zm33.123855,-131.893032l-33.123855,0l0,-31.929396l33.123855,0l0,31.929396zm32.629431,131.893032l0,-119.612451l63.775779,0q14.337162,0 21.835405,2.12862q7.580507,2.046732 13.760381,7.450218l0,0q12.606819,11.543682 12.606819,36.350413l0,0l0,73.683201l-33.123855,0l0,-77.367412q0,-8.841939 -3.955108,-12.771721q-3.955014,-3.929782 -13.101149,-3.929782l0,0l-28.674417,0l0,94.068915l-33.123855,0zm196.518364,-119.612451l61.798178,0l0,118.875646q0,10.070072 -2.38948,17.929636q-2.307217,7.85947 -6.756655,13.262956l0,0q-5.68545,6.877095 -13.760381,9.415062q-7.992573,2.619855 -23.318582,2.619855l0,0l-66.000451,0l0,-25.543536l61.551013,0q10.876477,0 14.172354,-3.356659q3.378327,-3.274771 3.378327,-13.590508l0,0l-30.404665,0q-14.58442,0 -24.142528,-3.110995q-9.475751,-3.029201 -17.138708,-10.15196l0,0q-18.045105,-16.947167 -18.045105,-46.666055l0,0q0,-33.894334 22.000213,-49.367798l0,0q7.910123,-5.649056 16.644285,-7.941452q8.816519,-2.374191 22.412186,-2.374191l0,0zm28.674323,94.068915l0,-68.52538l-27.438405,0q-28.674323,0 -28.674323,34.385475l0,0q0,16.701597 7.745315,25.461648q7.827859,8.678257 22.659351,8.678257l0,0l25.708062,0z" id="svg_4" transform="rotate(-64.28445434570312 717.0603637695311,668.1400146484374) "/>
 </g>
</svg>
